<?xml version="1.0"?>
<svg xmlns="http://www.w3.org/2000/svg" height="512px" viewBox="0 -34 484.54175 484" width="512px"><g><path d="m331.410156 142.09375 11.316406-11.308594 11.308594 11.316406-11.316406 11.308594zm0 0" data-original="#000000" class="active-path" data-old_color="#000000" fill="#FFFFFF"/><path d="m308.773438 119.460938 11.316406-11.3125 11.3125 11.3125-11.3125 11.3125zm0 0" data-original="#000000" class="active-path" data-old_color="#000000" fill="#FFFFFF"/><path d="m286.148438 96.84375 11.316406-11.3125 11.3125 11.3125-11.3125 11.3125zm0 0" data-original="#000000" class="active-path" data-old_color="#000000" fill="#FFFFFF"/><path d="m376.664062 187.347656 11.316407-11.3125 11.3125 11.3125-11.3125 11.3125zm0 0" data-original="#000000" class="active-path" data-old_color="#000000" fill="#FFFFFF"/><path d="m354.035156 164.71875 11.3125-11.316406 11.316406 11.3125-11.3125 11.316406zm0 0" data-original="#000000" class="active-path" data-old_color="#000000" fill="#FFFFFF"/><path d="m259.335938 292.71875c-3.007813-.003906-5.757813-1.691406-7.121094-4.367188l-14.449219-28.335937-31.40625 4.964844c-3.441406.570312-6.859375-1.15625-8.4375-4.265625-1.582031-3.113282-.964844-6.886719 1.523437-9.332032l22.488282-22.488281-14.398438-28.335937c-1.574218-3.089844-.980468-6.839844 1.472656-9.289063 2.449219-2.453125 6.199219-3.046875 9.285157-1.472656l28.347656 14.402344 22.484375-22.496094c2.445312-2.492187 6.222656-3.109375 9.332031-1.527344 3.113281 1.582031 4.839844 4.996094 4.269531 8.4375l-5.085937 31.488281 28.34375 14.449219c3.082031 1.578125 4.800781 4.960938 4.253906 8.382813s-3.234375 6.101562-6.65625 6.640625l-31.414062 4.976562-4.929688 31.414063c-.542969 3.421875-3.226562 6.105468-6.648437 6.648437-.414063.070313-.835938.105469-1.253906.105469zm-17.074219-49.546875c3.007812 0 5.761719 1.691406 7.128906 4.371094l5.894531 11.574219 2.035156-12.800782c.542969-3.421875 3.230469-6.105468 6.65625-6.648437l12.796876-2.039063-11.574219-5.894531c-3.089844-1.574219-4.8125-4.953125-4.273438-8.375l2.03125-12.839844-9.15625 9.183594c-2.453125 2.445313-6.203125 3.039063-9.289062 1.460937l-11.585938-5.894531 5.90625 11.578125c1.570313 3.085938.976563 6.835938-1.472656 9.285156l-9.191406 9.199219 12.839843-2.03125c.414063-.078125.832032-.121093 1.253907-.128906zm0 0" data-original="#000000" class="active-path" data-old_color="#000000" fill="#FFFFFF"/><path d="m477.511719 120.4375-39.601563-39.601562-5.65625 5.65625c-6.046875 6.144531-14.921875 8.574218-23.257812 6.367187-8.332032-2.210937-14.839844-8.71875-17.046875-17.054687-2.207031-8.332032.222656-17.210938 6.371093-23.253907l5.65625-5.65625-39.601562-39.59375c-9.371094-9.375-24.570312-9.375-33.945312 0l-28.277344 28.28125-16.96875-16.96875c-9.375-9.375-24.570313-9.375-33.945313 0l-244.207031 244.207031c-9.375 9.375-9.375 24.574219 0 33.945313l39.601562 39.601563 5.652344-5.65625c9.5-9.070313 24.449219-9.070313 33.945313 0 9.375 9.371093 9.375 24.570312 0 33.941406l-5.65625 5.65625 39.601562 39.609375c9.371094 9.367187 24.5625 9.367187 33.933594 0l28.28125-28.289063 16.976563 16.96875c9.371093 9.371094 24.5625 9.371094 33.9375 0l244.207031-244.222656c9.375-9.375 9.375-24.574219 0-33.945312zm-334.722657 278.152344c-1.5 1.503906-3.535156 2.347656-5.65625 2.347656-2.125 0-4.160156-.84375-5.660156-2.347656l-28.839844-28.855469c10.515626-15.863281 8.402344-36.9375-5.054687-50.394531-13.460937-13.457032-34.535156-15.566406-50.394531-5.046875l-28.847656-28.839844c-3.125-3.125-3.125-8.1875 0-11.3125l244.214843-244.214844c1.5-1.503906 3.535157-2.347656 5.660157-2.347656s4.160156.84375 5.660156 2.347656l16.96875 16.96875-204.617188 204.625c-9.367187 9.371094-9.367187 24.5625 0 33.933594l39.59375 39.601563 5.65625-5.65625c9.371094-9.375 24.570313-9.375 33.941406 0 9.375 9.371093 9.375 24.570312 0 33.941406l-5.664062 5.65625 11.320312 11.3125zm323.410157-255.519532-244.214844 244.207032c-3.125 3.125-8.191406 3.125-11.3125 0l-28.847656-28.847656c10.484375-15.863282 8.351562-36.914063-5.097657-50.351563-13.453124-13.410156-34.472656-15.53125-50.335937-5.082031l-28.855469-28.855469c-3.125-3.121094-3.125-8.1875 0-11.3125l244.207032-244.214844c1.5-1.5 3.539062-2.347656 5.660156-2.347656 2.125 0 4.160156.847656 5.660156 2.347656l28.847656 28.800781c-10.503906 15.859376-8.386718 36.917969 5.0625 50.371094 13.449219 13.449219 34.511719 15.570313 50.371094 5.070313l28.863281 28.863281c3.121094 3.121094 3.121094 8.1875 0 11.3125zm0 0" data-original="#000000" class="active-path" data-old_color="#000000" fill="#FFFFFF"/></g> </svg>
